HIERARCHY
ROOT Hips
{
	OFFSET 0.000000 0.000000 0.000000
	CHANNELS 6 Xposition Yposition Zposition Zrotation Yrotation Xrotation 
	JOINT LHipJoint
	{
		OFFSET 0.000000 0.000000 0.000000
		CHANNELS 3 Zrotation Yrotation Xrotation
		JOINT LeftUpLeg
		{
			OFFSET 1.363060 -1.794630 0.839290
			CHANNELS 3 Zrotation Yrotation Xrotation
			JOINT LeftLeg
			{
				OFFSET 2.448110 -6.726130 0.000000
				CHANNELS 3 Zrotation Yrotation Xrotation
				JOINT LeftFoot
				{
					OFFSET 2.562200 -7.039590 0.000000
					CHANNELS 3 Zrotation Yrotation Xrotation
					JOINT LeftToeBase
					{
						OFFSET 0.157640 -0.433110 2.322550
						CHANNELS 3 Zrotation Yrotation Xrotation
						End Site
						{
							OFFSET 0.000000 0.000000 0.000000
						}
					}
				}
			}
		}
	}
	JOINT RHipJoint
	{
		OFFSET 0.000000 0.000000 0.000000
		CHANNELS 3 Zrotation Yrotation Xrotation
		JOINT RightUpLeg
		{
			OFFSET -1.305520 -1.794630 0.839290
			CHANNELS 3 Zrotation Yrotation Xrotation
			JOINT RightLeg
			{
				OFFSET -2.542530 -6.985550 0.000000
				CHANNELS 3 Zrotation Yrotation Xrotation
				JOINT RightFoot
				{
					OFFSET -2.568260 -7.056230 0.000000
					CHANNELS 3 Zrotation Yrotation Xrotation
					JOINT RightToeBase
					{
						OFFSET -0.164730 -0.452590 2.363150
						CHANNELS 3 Zrotation Yrotation Xrotation
						End Site
						{
							OFFSET 0.000000 0.000000 0.000000
						}
					}
				}
			}
		}
	}
}
MOTION
Frames: 14
Frame Time: 0.008333
-11.271386 16.591289 -1.029212 12.338816 84.570455 38.124444 -8.476694 -1.267728 0.421751 -12.612899 -2.871848 -51.625653 -2.772388 0.369209 17.847008 0.492219 3.769059 6.325760 1.523900 0.000000 -18.044000 10.705276 -2.323186 -2.707531 5.808873 -1.891922 -7.575093 2.245587 -2.116916 27.703183 1.117088 12.017397 -1.218372 1.037600 0.000000 -72.884500
-11.113621 16.607163 -1.017225 15.389966 84.289663 41.172459 -8.291583 -1.173572 0.292345 -13.173091 -2.953462 -51.412604 -2.754882 0.437840 18.941727 0.563205 4.206423 5.926357 1.608600 0.000000 -18.001300 11.092345 -2.314290 -2.762235 4.948071 -2.372162 -8.766090 1.972179 -2.409620 30.161257 1.075978 12.172861 0.692525 1.434300 0.000000 -75.608200
-10.960561 16.628819 -1.007960 17.945884 84.024750 43.730314 -8.106925 -1.079205 0.174607 -13.665655 -3.095011 -51.046155 -2.749403 0.473089 19.802540 0.637784 4.608508 5.249144 1.652701 0.000000 -18.148400 11.446816 -2.270251 -2.826657 4.185161 -2.763833 -10.029708 1.667460 -2.688270 32.713839 0.996333 12.158302 2.869561 1.891001 -0.000000 -77.773000
-10.811798 16.655295 -1.002102 20.029670 83.780782 45.820344 -7.935482 -0.989761 0.067883 -14.086114 -3.273125 -50.534708 -2.756158 0.478110 20.418831 0.712624 4.960202 4.376391 1.654600 0.000000 -18.412100 11.757826 -2.193878 -2.895943 3.536140 -3.057943 -11.347091 1.340503 -2.945523 35.326841 0.876254 11.973217 5.289984 2.385500 0.000000 -79.215700
-10.666728 16.685630 -1.000479 21.585823 83.564904 47.387104 -7.793004 -0.912105 -0.030419 -14.424530 -3.449590 -49.904245 -2.772629 0.458979 20.803354 0.783132 5.241415 3.394602 1.615601 -0.000000 -18.717600 12.011318 -2.091177 -2.964114 3.027269 -3.241976 -12.696150 1.004208 -3.174046 37.959294 0.715777 11.610748 7.907243 2.882200 0.000000 -79.789600
-10.524720 16.718857 -1.003141 22.675183 83.379109 48.487165 -7.683827 -0.847848 -0.123558 -14.690328 -3.599711 -49.168936 -2.796664 0.419960 20.964117 0.846122 5.453282 2.396916 1.547300 0.000000 -19.003700 12.208351 -1.965905 -3.029277 2.652238 -3.333054 -14.061225 0.672759 -3.370422 40.580294 0.518451 11.080179 10.652958 3.338400 0.000000 -79.405700
-10.385073 16.754078 -1.010213 23.285031 83.227258 49.104365 -7.615864 -0.799080 -0.214527 -14.885482 -3.688924 -48.358656 -2.824489 0.368056 20.933527 0.897226 5.588560 1.460541 1.460100 -0.000000 -19.220100 12.345500 -1.825657 -3.088005 2.418072 -3.341051 -15.423429 0.360470 -3.532670 43.153406 0.290611 10.373802 13.434579 3.700900 -0.000000 -78.085900
-10.247228 16.790582 -1.021251 23.487666 83.106069 49.307080 -7.586856 -0.763419 -0.306673 -15.026923 -3.700369 -47.491959 -2.853754 0.308219 20.737326 0.934377 5.657599 0.650571 1.368300 -0.000000 -19.341400 12.430764 -1.674698 -3.141560 2.304916 -3.294720 -16.771609 0.078176 -3.663418 45.652178 0.041096 9.488814 16.149065 3.919200 0.000000 -75.972700
-10.110648 16.827713 -1.035728 23.335009 83.013064 49.143177 -7.595160 -0.737925 -0.401595 -15.127478 -3.619110 -46.592737 -2.882191 0.246085 20.413621 0.955955 5.666406 0.006315 1.281800 -0.000000 -19.364400 12.470610 -1.519141 -3.190172 2.299216 -3.217353 -18.094307 -0.168063 -3.767032 48.050442 -0.220726 8.409608 18.691239 3.945500 0.000000 -73.333200
-9.974953 16.865061 -1.052909 22.907409 82.943463 48.691390 -7.634605 -0.718703 -0.500711 -15.202542 -3.443719 -45.679091 -2.908671 0.185630 19.996924 0.962423 5.627098 -0.456219 1.208099 0.000000 -19.308899 12.474977 -1.362826 -3.236102 2.378777 -3.132621 -19.384752 -0.377470 -3.849818 50.328184 -0.486347 7.122864 20.964859 3.745400 -0.000000 -70.495500
-9.839892 16.902274 -1.072030 22.278121 82.893982 48.024963 -7.699056 -0.702440 -0.603830 -15.262329 -3.180532 -44.768905 -2.932489 0.130038 19.524150 0.955422 5.549377 -0.746493 1.149100 -0.000000 -19.207700 12.452257 -1.209377 -3.280987 2.525771 -3.056602 -20.638132 -0.553512 -3.918063 52.470358 -0.748937 5.620020 22.884730 3.301800 -0.000000 -67.776799
-9.705382 16.939091 -1.092344 21.520441 82.863224 47.218314 -7.781932 -0.686598 -0.709353 -15.313000 -2.844560 -43.877131 -2.953441 0.081152 19.029263 0.937695 5.442042 -0.894193 1.103199 0.000000 -19.099500 12.409911 -1.061402 -3.326246 2.724181 -3.000030 -21.853222 -0.702308 -3.977579 54.469156 -1.003348 3.908559 24.379113 2.621400 -0.000000 -65.396800
-9.571408 16.975347 -1.113159 20.704849 82.851044 46.344704 -7.876414 -0.669800 -0.815022 -15.356249 -2.459196 -43.013130 -2.971460 0.039342 18.539957 0.912866 5.314562 -0.942551 1.066700 -0.000001 -19.020800 12.354276 -0.920181 -3.373897 2.960019 -2.969486 -23.031626 -0.830801 -4.033370 56.321364 -1.245542 2.019145 25.390546 1.738700 0.000001 -63.452900
-9.438123 17.010881 -1.133849 19.889178 82.858427 45.465264 -7.976705 -0.651598 -0.917590 -15.389936 -2.051643 -42.182352 -2.986480 0.003974 18.077698 0.884706 5.175505 -0.940851 1.034900 0.000000 -19.000300 12.289903 -0.786503 -3.425392 3.222231 -2.967265 -24.176825 -0.945462 -4.089229 58.026984 -1.471977 0.008347 25.879388 0.715700 0.000000 -61.928300
